<?xml version="1.0" standalone="no"?>
<!DOCTYPE svg PUBLIC "-//W3C//DTD SVG 20010904//EN"
 "http://www.w3.org/TR/2001/REC-SVG-20010904/DTD/svg10.dtd">
<svg version="1.0" xmlns="http://www.w3.org/2000/svg"
 width="314.000000pt" height="314.000000pt" viewBox="0 0 314.000000 314.000000"
 preserveAspectRatio="xMidYMid meet">
<metadata>
Created by potrace 1.14, written by Peter Selinger 2001-2017
</metadata>
<g transform="translate(0.000000,314.000000) scale(0.100000,-0.100000)"
fill="#000000" stroke="none">
<path d="M1551 2899 c-7 -12 -21 -36 -31 -53 -10 -17 -84 -146 -165 -286 -81
-140 -159 -275 -173 -299 -14 -25 -38 -68 -55 -95 -16 -28 -40 -69 -52 -91
-13 -22 -123 -213 -245 -425 -122 -212 -233 -403 -245 -425 -43 -75 -425 -740
-435 -755 -11 -19 -107 -184 -131 -227 l-19 -33 1571 0 1570 0 -28 48 c-15 26
-46 80 -70 120 -24 41 -43 75 -43 77 0 1 -25 44 -55 94 -30 51 -55 94 -55 97
0 3 -16 30 -35 60 -19 30 -35 56 -35 59 0 3 -22 42 -49 87 -27 46 -67 116 -90
156 l-42 72 -130 0 c-72 0 -129 -4 -127 -9 2 -4 71 -126 153 -270 83 -143 163
-284 178 -311 l28 -50 -218 0 c-877 -2 -2116 0 -2120 3 -4 5 252 458 288 509
10 15 19 29 19 32 0 2 46 85 103 183 57 98 200 345 317 548 117 204 244 424
283 490 68 116 86 149 130 228 20 35 37 48 37 28 0 -5 27 -55 60 -111 33 -56
60 -104 60 -108 0 -3 6 -13 14 -21 7 -9 29 -46 49 -82 20 -37 60 -107 89 -155
29 -49 61 -105 71 -124 l19 -35 126 1 c104 1 126 3 124 15 -2 8 -40 77 -84
154 -44 77 -89 156 -100 175 -73 126 -221 383 -279 482 -38 64 -69 120 -69
124 0 4 -6 15 -14 23 -8 9 -26 40 -41 69 -15 28 -30 52 -34 52 -3 0 -12 -10
-20 -21z"/>
<path d="M1630 1642 c-6 -2 -10 -24 -10 -48 l0 -44 590 0 590 0 0 48 0 47
-580 0 c-319 0 -585 -1 -590 -3z"/>
<path d="M1780 1315 c0 -29 4 -45 13 -46 6 0 272 -1 590 -2 379 -1 577 1 578
8 0 6 2 27 3 48 l2 37 -593 0 -593 0 0 -45z"/>
</g>
</svg>
